HIERARCHY
ROOT Hips
{
	OFFSET 0.000000 0.000000 0.000000 
	CHANNELS 6 Xposition Yposition Zposition Zrotation Yrotation Xrotation
	JOINT LeftUpLeg
	{
		OFFSET 1.363060 -1.794630 0.839290 
		CHANNELS 3 Zrotation Yrotation Xrotation
		JOINT LeftLeg
		{
			OFFSET 2.448110 -6.726130 0.000000 
			CHANNELS 3 Zrotation Yrotation Xrotation
			JOINT LeftFoot
			{
				OFFSET 2.562200 -7.039590 0.000000 
				CHANNELS 3 Zrotation Yrotation Xrotation
				JOINT LeftToeBase
				{
					OFFSET 0.157640 -0.433110 2.322550 
					CHANNELS 3 Zrotation Yrotation Xrotation
					End Site
					{
						OFFSET 0.000000 0.000000 0.000000 
					}
				}
			}
		}
	}
	JOINT RightUpLeg
	{
		OFFSET -1.305520 -1.794630 0.839290 
		CHANNELS 3 Zrotation Yrotation Xrotation
		JOINT RightLeg
		{
			OFFSET -2.542530 -6.985550 0.000000 
			CHANNELS 3 Zrotation Yrotation Xrotation
			JOINT RightFoot
			{
				OFFSET -2.568260 -7.056230 0.000000 
				CHANNELS 3 Zrotation Yrotation Xrotation
				JOINT RightToeBase
				{
					OFFSET -0.164730 -0.452590 2.363150 
					CHANNELS 3 Zrotation Yrotation Xrotation
					End Site
					{
						OFFSET 0.000000 0.000000 0.000000 
					}
				}
			}
		}
	}
	JOINT Spine
	{
		OFFSET 0.028270 2.035590 -0.193380 
		CHANNELS 3 Zrotation Yrotation Xrotation
		JOINT Spine1
		{
			OFFSET 0.056720 2.048850 -0.042750 
			CHANNELS 3 Zrotation Yrotation Xrotation
			JOINT Neck1
			{
				OFFSET -0.054170 1.746240 0.172020 
				CHANNELS 3 Zrotation Yrotation Xrotation
				JOINT Head
				{
					OFFSET 0.104070 1.761360 -0.123970 
					CHANNELS 3 Zrotation Yrotation Xrotation
					End Site
					{
						OFFSET 0.000000 0.000000 0.000000 
					}
				}
			}
			JOINT LeftArm
			{
				OFFSET 3.362410 1.200890 -0.311210 
				CHANNELS 3 Zrotation Yrotation Xrotation
				JOINT LeftForeArm
				{
					OFFSET 4.983000 -0.000000 -0.000000 
					CHANNELS 3 Zrotation Yrotation Xrotation
					JOINT LeftHand
					{
						OFFSET 3.483560 -0.000000 -0.000000 
						CHANNELS 3 Zrotation Yrotation Xrotation
						JOINT LeftHandIndex1
						{
							OFFSET 0.715260 -0.000000 -0.000000 
							CHANNELS 3 Zrotation Yrotation Xrotation
							End Site
							{
								OFFSET 0.000000 0.000000 0.000000 
							}
						}
					}
				}
			}
			JOINT RightArm
			{
				OFFSET -3.136600 1.374050 -0.404650 
				CHANNELS 3 Zrotation Yrotation Xrotation
				JOINT RightForeArm
				{
					OFFSET -5.241900 -0.000000 -0.000000 
					CHANNELS 3 Zrotation Yrotation Xrotation
					JOINT RightHand
					{
						OFFSET -3.444170 -0.000000 -0.000000 
						CHANNELS 3 Zrotation Yrotation Xrotation
						JOINT RightHandIndex1
						{
							OFFSET -0.622530 -0.000000 -0.000000 
							CHANNELS 3 Zrotation Yrotation Xrotation
							End Site
							{
								OFFSET 0.000000 0.000000 0.000000 
							}
						}
					}
				}
			}
		}
	}
}
MOTION
Frames: 6
Frame Time: 0.041667
-2.235000 2.424900 -5.199200 87.124400 12.107700 -26.176800 -27.660400 11.662600 -20.633000 16.040700 19.619900 78.353000 0.567500 -0.066200 14.259100 1.459100 -7.634500 -21.609300 -4.354000 24.765500 -50.904000 -4.671300 -13.003800 39.382700 1.218700 -19.211000 -9.593800 -0.060300 1.583900 -4.357100 -2.559000 -3.118700 3.365100 3.087300 -1.385000 -6.309600 14.567800 -5.684800 23.245500 3.125100 -0.022400 11.116300 -137.857900 -47.065800 117.591900 40.062900 -48.107100 -18.486000 0.000000 0.000000 -26.735800 -7.125000 0.000000 0.000000 -55.398100 64.387900 -82.884800 -15.893800 25.376400 -3.600300 0.000000 0.000000 -66.092900 7.125000 0.000000 0.000000 
-2.246600 2.429900 -5.194400 86.685000 11.766700 -26.215600 -27.093300 11.747700 -20.647000 16.039300 19.619700 78.348800 0.564600 0.092500 14.166800 1.291400 -7.200300 -20.310300 -3.645700 24.783400 -50.748600 -4.620500 -12.943300 39.156500 1.235400 -19.301700 -9.289500 -0.049000 1.428000 -3.927200 -2.062200 -2.890800 3.499300 3.515600 -1.288800 -5.987600 14.889700 -5.761600 23.729000 3.364300 -0.008700 11.447900 -138.580200 -47.075500 117.984800 40.173900 -48.172600 -18.568800 0.000000 0.000000 -26.847200 -7.125000 0.000000 0.000000 -46.525900 61.435100 -67.669300 -18.972700 29.384700 -5.017400 0.000000 0.000000 -73.822000 7.125000 0.000000 0.000000 
-2.246500 2.431900 -5.189400 86.853200 11.621900 -26.233100 -27.205700 11.937800 -20.624700 16.039000 19.619600 78.347900 0.559600 0.076600 14.109700 1.274200 -7.154300 -20.173200 -3.659800 24.872400 -50.736600 -4.614700 -12.936300 39.130600 1.237100 -19.293800 -9.035700 -0.029900 1.116000 -3.068100 -1.904300 -2.719600 3.582900 3.835800 -1.207200 -5.844700 15.079900 -5.693300 23.830000 3.495900 0.037200 11.533600 -139.015700 -47.083000 118.313700 40.189800 -48.181900 -18.580600 0.000000 0.000000 -26.973200 -7.125000 0.000000 0.000000 -42.847100 59.690000 -61.504600 -20.536600 31.283400 -5.807400 0.000000 0.000000 -77.035600 7.125000 0.000000 0.000000 
-2.243400 2.429000 -5.190200 86.907500 11.588800 -26.138600 -27.251800 11.914200 -20.785300 16.064700 19.624600 78.424300 0.558300 -0.119300 14.162800 1.362000 -7.386900 -20.866900 -3.712300 24.884500 -50.846000 -4.598800 -12.917300 39.059600 1.224200 -19.211300 -9.156800 -0.042000 1.321900 -3.635100 -1.885500 -2.667500 3.548500 3.901600 -1.177900 -5.863800 15.022300 -5.601600 23.656500 3.456000 0.061900 11.424600 -139.089100 -46.988200 118.417100 40.205400 -48.191100 -18.592200 0.000000 0.000000 -27.035800 -7.125000 0.000000 0.000000 -42.546900 59.781100 -61.419000 -20.567500 31.320000 -5.823500 0.000000 0.000000 -76.748700 7.125000 0.000000 0.000000 
-2.243400 2.427500 -5.192000 86.742900 11.532200 -26.089200 -27.080000 11.833000 -20.913000 16.090600 19.629600 78.501400 0.554600 -0.237700 14.158800 1.426100 -7.551400 -21.359600 -3.551900 24.873000 -50.907700 -4.592000 -12.909000 39.028800 1.213000 -19.150300 -9.380400 -0.057400 1.546000 -4.252700 -1.837600 -2.676300 3.519800 3.868400 -1.182900 -5.874300 14.878600 -5.613800 23.583200 3.369900 0.045800 11.379800 -139.038800 -46.922000 118.335400 40.226600 -48.203600 -18.608000 0.000000 0.000000 -26.870700 -7.125000 0.000000 0.000000 -42.423600 59.931100 -61.513500 -20.572100 31.325400 -5.825900 0.000000 0.000000 -76.497400 7.125000 0.000000 0.000000 
-2.248800 2.429600 -5.190900 86.535000 11.426900 -26.097000 -26.866100 11.798700 -20.916500 16.098000 19.631000 78.523700 0.549100 -0.139300 14.053100 1.361000 -7.384200 -20.858600 -3.292100 24.875600 -50.873600 -4.584900 -12.900500 38.997000 1.231000 -19.263500 -9.205900 -0.042500 1.330500 -3.658500 -1.943900 -2.768800 3.457900 3.529900 -1.230100 -5.968300 14.031900 -5.537600 23.611500 2.933300 0.045500 11.315200 -138.570200 -46.943800 118.048900 40.277600 -48.233500 -18.646000 0.000000 0.000000 -26.794000 -7.125000 0.000000 0.000000 -46.469900 61.731800 -68.035100 -18.954900 29.362600 -5.008700 0.000000 0.000000 -73.246500 7.125000 0.000000 0.000000 
